<svg xmlns="http://www.w3.org/2000/svg" viewBox="0 0 51.21 69.7"><defs><style>.cls-1,.cls-2{fill:none;stroke:#000;stroke-width:3px;}.cls-1{stroke-miterlimit:10;}.cls-2{stroke-linecap:round;stroke-linejoin:round;}</style></defs><title>Asset 29</title><g id="Layer_2" data-name="Layer 2"><g id="Layer_2-2" data-name="Layer 2"><circle class="cls-1" cx="25.61" cy="16.07" r="5.33"/><polyline class="cls-2" points="22.59 20.46 9.68 62.31 25.61 62.31 41.54 62.31 28.63 20.46"/><line class="cls-2" x1="16.38" y1="40.66" x2="39.32" y2="55.14"/><line class="cls-2" x1="34.86" y1="40.66" x2="11.88" y2="55.16"/><line class="cls-2" x1="20.11" y1="28.5" x2="33.8" y2="37.15"/><line class="cls-2" x1="31.11" y1="28.52" x2="17.44" y2="37.15"/><path class="cls-2" d="M35.77,7.26a12.44,12.44,0,0,1,0,17.61"/><path class="cls-2" d="M40.54,1.5a20.61,20.61,0,0,1,0,29.13"/><path class="cls-2" d="M15.44,7.26a12.46,12.46,0,0,0,0,17.61"/><path class="cls-2" d="M10.68,1.5a20.59,20.59,0,0,0,0,29.13"/><path class="cls-2" d="M5.71,62.31h39.8a4.21,4.21,0,0,1,4.21,4.21V68.2a0,0,0,0,1,0,0H1.5a0,0,0,0,1,0,0V66.52A4.21,4.21,0,0,1,5.71,62.31Z"/></g></g></svg>