<svg xmlns="http://www.w3.org/2000/svg" viewBox="0 0 56.28 87.59"><defs><style>.cls-1,.cls-2,.cls-3{fill:none;stroke:#000;stroke-width:3px;}.cls-1,.cls-3{stroke-miterlimit:10;}.cls-2,.cls-3{stroke-linecap:round;}.cls-2{stroke-linejoin:round;}</style></defs><title>Asset 25</title><g id="Layer_2" data-name="Layer 2"><g id="Layer_2-2" data-name="Layer 2"><circle class="cls-1" cx="40.22" cy="31.7" r="14.3"/><path class="cls-2" d="M31.39,34.77a3.09,3.09,0,1,0,.35-3.1V28.22a1.44,1.44,0,0,1,1.44-1.44h3.57"/><path class="cls-2" d="M48.92,27.9a4.92,4.92,0,1,0,0,7.59V31.7h-3"/><path class="cls-2" d="M49,12.3a12.44,12.44,0,0,0-17.61,0"/><path class="cls-2" d="M54.78,7.53a20.61,20.61,0,0,0-29.13,0"/><path class="cls-2" d="M41,46V80.62a5.46,5.46,0,0,1-5.46,5.47H7A5.47,5.47,0,0,1,1.5,80.62V30A5.47,5.47,0,0,1,7,24.51h20.9"/><polyline class="cls-2" points="40.97 45.98 40.97 74.44 1.5 74.44 1.5 33.19 25.92 33.19"/><line class="cls-3" x1="17.69" y1="80.31" x2="24.79" y2="80.31"/></g></g></svg>