<svg xmlns="http://www.w3.org/2000/svg" viewBox="0 0 66.07 74.85"><defs><style>.cls-1{fill:none;stroke:#000;stroke-linecap:round;stroke-linejoin:round;stroke-width:3px;}</style></defs><title>Asset 8</title><g id="Layer_2" data-name="Layer 2"><g id="Layer_2-2" data-name="Layer 2"><path class="cls-1" d="M36.1,59.36a46.81,46.81,0,0,0,4.59,2.33C65.28,50.78,64.57,28,64.57,28V5.64C51.75,11.85,40.69,1.5,40.69,1.5S29.63,11.85,16.81,5.64V28a33,33,0,0,0,1.85,10.43"/><path class="cls-1" d="M35.91,51.58a34.12,34.12,0,0,0,4.78,2.6c18.46-8.29,17.93-25.62,17.93-25.62V12.62C49,17.33,40.69,9.47,40.69,9.47s-8.3,7.86-17.93,3.15V28.56a27,27,0,0,0,2.65,11.08"/><circle class="cls-1" cx="18.97" cy="55.88" r="17.47"/><path class="cls-1" d="M20.65,58.58H17.3L16.39,46A2.59,2.59,0,0,1,19,43.41h0A2.59,2.59,0,0,1,21.55,46Z"/><circle class="cls-1" cx="18.97" cy="65.77" r="2.58"/></g></g></svg>